<svg width="1600" height="900" viewBox="0 0 1600 900" fill="none" xmlns="http://www.w3.org/2000/svg">
  <defs>
    <linearGradient id="paper" x1="88" y1="72" x2="1512" y2="828" gradientUnits="userSpaceOnUse">
      <stop stop-color="#F7F2E8"/>
      <stop offset="0.52" stop-color="#ECEFF5"/>
      <stop offset="1" stop-color="#E4DED4"/>
    </linearGradient>
    <linearGradient id="ink" x1="962" y1="156" x2="1452" y2="744" gradientUnits="userSpaceOnUse">
      <stop stop-color="#111723"/>
      <stop offset="1" stop-color="#0A0F18"/>
    </linearGradient>
    <radialGradient id="glowA" cx="0" cy="0" r="1" gradientUnits="userSpaceOnUse" gradientTransform="translate(248 182) rotate(30) scale(404 288)">
      <stop stop-color="#E4C178"/>
      <stop offset="1" stop-color="#E4C178" stop-opacity="0"/>
    </radialGradient>
    <radialGradient id="glowB" cx="0" cy="0" r="1" gradientUnits="userSpaceOnUse" gradientTransform="translate(1282 256) rotate(130) scale(340 260)">
      <stop stop-color="#7EBEF0" stop-opacity="0.52"/>
      <stop offset="1" stop-color="#7EBEF0" stop-opacity="0"/>
    </radialGradient>
    <filter id="shadow" x="896" y="104" width="632" height="688" filterUnits="userSpaceOnUse" color-interpolation-filters="sRGB">
      <feFlood flood-opacity="0" result="BackgroundImageFix"/>
      <feColorMatrix in="SourceAlpha" type="matrix" values="0 0 0 0 0 0 0 0 0 0 0 0 0 0 0 0 0 0 127 0" result="hardAlpha"/>
      <feOffset dy="24"/>
      <feGaussianBlur stdDeviation="28"/>
      <feColorMatrix type="matrix" values="0 0 0 0 0.05 0 0 0 0 0.07 0 0 0 0 0.11 0 0 0 0.24 0"/>
      <feBlend mode="normal" in2="BackgroundImageFix" result="effect1_dropShadow_0_1"/>
      <feBlend mode="normal" in="SourceGraphic" in2="effect1_dropShadow_0_1" result="shape"/>
    </filter>
  </defs>

  <rect width="1600" height="900" rx="34" fill="#FBF8F2"/>
  <rect x="52" y="52" width="1496" height="796" rx="34" fill="url(#paper)"/>
  <rect x="52" y="52" width="1496" height="796" rx="34" fill="url(#glowA)"/>
  <rect x="52" y="52" width="1496" height="796" rx="34" fill="url(#glowB)"/>

  <path d="M132 126H1458" stroke="#C8C0B4" stroke-width="2" stroke-dasharray="4 10"/>
  <circle cx="118" cy="108" r="12" fill="#111723"/>
  <circle cx="152" cy="108" r="12" fill="#D8AD60"/>
  <circle cx="186" cy="108" r="12" fill="#84C9FF"/>

  <rect x="126" y="168" width="8" height="530" rx="4" fill="#D8AD60"/>
  <text x="160" y="188" fill="#111723" font-family="'Courier New', monospace" font-size="24" letter-spacing="5.28">RUSTFRAME</text>

  <text x="160" y="288" fill="#111723" font-family="Georgia, 'Times New Roman', serif" font-size="108" font-weight="700">
    <tspan x="160" dy="0">Plain frontend</tspan>
    <tspan x="160" dy="114">files.</tspan>
    <tspan x="160" dy="114">Real desktop</tspan>
    <tspan x="160" dy="114">shell.</tspan>
  </text>

  <text x="168" y="724" fill="#5E6777" font-family="'Avenir Next', 'Segoe UI', sans-serif" font-size="34">
    <tspan x="168" dy="0">Local-first workflow tools with SQLite, scoped filesystem access,</tspan>
    <tspan x="168" dy="44">allowlisted automation, and host-native packaging.</tspan>
  </text>

  <rect x="160" y="778" width="630" height="62" rx="18" fill="#131927"/>
  <text x="194" y="818" fill="#F4F6FB" font-family="'Courier New', monospace" font-size="24">cargo run -p rustframe-cli -- dev research-desk</text>

  <g filter="url(#shadow)">
    <rect x="944" y="148" width="528" height="588" rx="34" fill="url(#ink)"/>
  </g>

  <text x="992" y="198" fill="#8FA1BB" font-family="'Courier New', monospace" font-size="20" letter-spacing="4">WORKFLOW WEDGE</text>
  <text x="992" y="302" fill="#F2F5FB" font-family="Georgia, 'Times New Roman', serif" font-size="70" font-weight="700">
    <tspan x="992" dy="0">Too native</tspan>
    <tspan x="992" dy="78">for a tab.</tspan>
    <tspan x="992" dy="94">Too small</tspan>
    <tspan x="992" dy="78">for a full</tspan>
    <tspan x="992" dy="78">desktop</tspan>
    <tspan x="992" dy="78">project.</tspan>
  </text>

  <rect x="992" y="596" width="130" height="36" rx="18" fill="#D8AD601C" stroke="#6B5730"/>
  <text x="1021" y="620" fill="#F3D297" font-family="'Courier New', monospace" font-size="18">SQLite</text>
  <rect x="1136" y="596" width="170" height="36" rx="18" fill="#84C9FF1A" stroke="#446580"/>
  <text x="1160" y="620" fill="#CCE8FF" font-family="'Courier New', monospace" font-size="18">scoped fs</text>
  <rect x="1320" y="596" width="100" height="36" rx="18" fill="#D8AD601C" stroke="#6B5730"/>
  <text x="1351" y="620" fill="#F3D297" font-family="'Courier New', monospace" font-size="18">ship</text>

  <text x="992" y="676" fill="#93A2B8" font-family="'Avenir Next', 'Segoe UI', sans-serif" font-size="30">
    <tspan x="992" dy="0">Mostly frontend code,</tspan>
    <tspan x="992" dy="40">but still a real desktop tool.</tspan>
  </text>

  <path d="M1334 164L1432 164" stroke="#D8AD60" stroke-width="4" stroke-linecap="round"/>
  <path d="M1334 184L1402 184" stroke="#84C9FF" stroke-width="4" stroke-linecap="round"/>
  <circle cx="1412" cy="666" r="56" fill="#E7EEF7"/>
  <circle cx="1412" cy="666" r="32" fill="#111723"/>
  <circle cx="1412" cy="666" r="12" fill="#D8AD60"/>
</svg>
